<svg width="57" height="32" viewBox="0 0 57 32" fill="none" xmlns="http://www.w3.org/2000/svg">
<path d="M31.5 21H36.5L35.0951 19.5951C34.7141 19.2141 34.5 18.6973 34.5 18.1585V15C34.5 12.3876 32.8304 10.1651 30.5 9.34142V9C30.5 7.89543 29.6046 7 28.5 7C27.3954 7 26.5 7.89543 26.5 9V9.34142C24.1696 10.1651 22.5 12.3876 22.5 15V18.1585C22.5 18.6973 22.2859 19.2141 21.9049 19.5951L20.5 21H25.5M31.5 21V22C31.5 23.6569 30.1569 25 28.5 25C26.8431 25 25.5 23.6569 25.5 22V21M31.5 21H25.5" stroke="#707070" stroke-width="1.5" stroke-linecap="round" stroke-linejoin="round"/>
</svg>
