<svg width="22" height="22" viewBox="0 0 22 22" fill="none" xmlns="http://www.w3.org/2000/svg">
<path d="M0 11C0 4.92487 4.92487 0 11 0C17.0751 0 22 4.92487 22 11C22 17.0751 17.0751 22 11 22C4.92487 22 0 17.0751 0 11Z" fill="#FEF0F0"/>
<g clip-path="url(#clip0_2330_21432)">
<path d="M10.2463 5.3837C10.0819 5.48671 9.94077 5.62302 9.83217 5.78387L6.9785 10.0189C5.82292 11.952 6.26684 14.374 8.00925 15.7834C9.74117 17.1845 12.2594 17.1845 13.9908 15.7834C15.7332 14.374 16.1771 11.9515 15.0378 10.0457L12.1684 5.78387C11.7473 5.15679 10.8898 4.9812 10.2463 5.3837Z" fill="#B82828"/>
</g>
<defs>
<clipPath id="clip0_2330_21432">
<rect width="14" height="14" fill="white" transform="translate(4 4)"/>
</clipPath>
</defs>
</svg>
