<svg width="22" height="22" viewBox="0 0 22 22" fill="none" xmlns="http://www.w3.org/2000/svg">
<path d="M0 11C0 4.92487 4.92487 0 11 0C17.0751 0 22 4.92487 22 11C22 17.0751 17.0751 22 11 22C4.92487 22 0 17.0751 0 11Z" fill="#FFEFE5"/>
<path fill-rule="evenodd" clip-rule="evenodd" d="M6.22009 7.62015C7.31356 6.52668 9.08643 6.52668 10.1799 7.62015L11 8.44025L11.8201 7.62015C12.9136 6.52668 14.6864 6.52668 15.7799 7.62015C16.8734 8.71362 16.8734 10.4865 15.7799 11.5799L11 16.3598L6.22009 11.5799C5.12663 10.4865 5.12663 8.71362 6.22009 7.62015Z" fill="#D05E1B"/>
</svg>
