<svg width="46" height="42" viewBox="0 0 46 42" fill="none" xmlns="http://www.w3.org/2000/svg">
<path d="M0 8C0 3.58172 3.58172 0 8 0H38C42.4183 0 46 3.58172 46 8V34C46 38.4183 42.4183 42 38 42H8C3.58172 42 0 38.4183 0 34V8Z" fill="#0B6E27"/>
<path d="M29.75 27.75L25.25 23.25M26.75 19.5C26.75 22.3995 24.3995 24.75 21.5 24.75C18.6005 24.75 16.25 22.3995 16.25 19.5C16.25 16.6005 18.6005 14.25 21.5 14.25C24.3995 14.25 26.75 16.6005 26.75 19.5Z" stroke="white" stroke-width="1.5" stroke-linecap="round" stroke-linejoin="round"/>
</svg>
