<svg width="166" height="190" viewBox="0 0 166 190" fill="none" xmlns="http://www.w3.org/2000/svg">
<mask id="mask0_2084_13600" style="mask-type:luminance" maskUnits="userSpaceOnUse" x="20" y="0" width="126" height="125">
<path d="M20.6331 0H145.367V124.481H20.6331V0Z" fill="white"/>
</mask>
<g mask="url(#mask0_2084_13600)">
<path d="M44.2369 104.796C52.6607 108.512 81.2643 120.605 96.5727 120.605C98.45 120.605 100.011 120.413 101.22 120.043C101.653 119.912 102.017 119.766 102.344 119.592C106.933 117.167 106.495 108.601 105.985 98.6831C105.65 92.1296 105.301 85.3556 106.286 78.8021C107.425 71.1747 112.722 64.6318 120.114 61.7302C122.594 60.7595 125.984 60.1798 129.181 60.1798C133.732 60.1798 137.377 61.2786 139.805 63.3268C142.399 44.7081 140.158 29.9583 133.115 19.4364C129.067 13.3842 123.622 9.02469 116.94 6.48223C106.08 2.3645 94.3427 4.54782 86.3157 12.1823C78.6009 19.5146 76.3232 29.9085 80.221 39.9895C80.9961 41.9914 80.5443 44.2779 80.1108 46.4896C79.8573 47.7662 79.5964 49.089 79.6515 50.1167C79.6626 50.3265 79.6846 50.4971 79.7103 50.6394C79.905 50.5896 80.1181 50.5291 80.2908 50.4794C81.2239 50.2162 82.3885 49.8855 83.5971 50.1913C84.4972 50.4153 85.1144 51.0198 85.5699 51.5106C86.0695 51.3505 86.7602 51.2617 87.4986 51.6066L87.5207 51.6208C88.4832 52.0831 89.0269 53.0929 88.9167 54.1917C88.8836 54.5117 88.8028 54.7927 88.7146 55.0345C88.722 55.038 88.7293 55.0416 88.7366 55.0487C89.251 55.3616 89.6404 55.7065 89.9453 56.1119C90.6323 57.0187 90.9152 57.8116 91.187 58.5797C91.2274 58.7006 91.2715 58.8286 91.3193 58.9566C92.5536 58.6686 95.4155 57.552 99.1627 56.087C101.837 55.0416 103.92 54.9633 105.533 55.8559C106.448 56.3608 107.612 57.4382 107.958 59.6856C108.549 63.5188 105.603 65.9191 103.237 67.8464L102.987 68.049C99.5337 70.8724 96.0106 73.006 92.6087 75.0684C86.8777 78.5425 81.9329 81.5437 78.7625 86.8811C77.4951 89.0182 76.8191 91.0735 76.753 92.9901C76.6832 95.0774 77.2746 97.7301 78.7405 98.6262C79.6956 99.2129 80.1438 100.209 79.905 101.226C79.1666 104.376 71.4224 105.902 69.3908 106.136C63.7149 106.794 61.496 104.941 60.6364 103.27L59.8208 101.688L61.3821 100.767C61.4666 100.717 70.0778 95.4295 68.0903 90.3623C66.7274 86.8775 65.3938 86.2552 64.2182 85.7041C63.2778 85.2596 61.9883 84.6551 61.4556 82.9625C61.0037 81.5472 57.2051 73.742 50.1222 70.9436C45.8129 69.2403 41.0114 69.7452 35.8535 72.437C29.4245 75.8045 25.4017 80.9036 24.8139 86.4259C24.7001 87.4927 25.0417 88.563 25.7728 89.4413L25.7838 89.4556C26.8565 90.7286 27.8705 92.0905 28.8514 93.4417C29.4796 92.6594 30.3796 92.1225 31.4377 91.9127C31.6801 91.8593 31.9189 91.8273 32.1614 91.8202C32.2422 91.8167 32.323 91.8131 32.4038 91.8131C33.7374 91.8131 35.0159 92.3536 36.2025 93.4204C38.6822 95.5895 41.1142 100.312 42.8078 104.149C43.2487 104.348 43.6785 104.543 44.1083 104.739C44.1487 104.757 44.1928 104.774 44.2369 104.796ZM96.5727 124.456C80.4561 124.456 51.1655 112.085 42.5727 108.295L42.4368 108.238C41.7939 107.939 41.1436 107.648 40.453 107.345L39.7366 107.032L39.4317 106.328C37.3119 101.407 35.1004 97.6483 33.5207 96.2687L33.4949 96.2473C33.0798 95.874 32.6904 95.6642 32.4038 95.6642L32.2422 95.6855C32.0512 95.7246 32.0108 95.7851 31.9887 95.8242C31.6948 96.2793 32.1357 97.7728 32.301 98.3382L35.1775 108.156L28.7926 100.027C28.0027 99.0209 27.1872 97.8795 26.3936 96.7772C25.2034 95.1165 23.9727 93.399 22.6905 91.8878L22.6611 91.8522C21.2725 90.1845 20.6259 88.115 20.85 86.0312C21.57 79.2252 26.3496 73.038 33.9542 69.0483C40.2178 65.7804 46.1619 65.2186 51.6321 67.377C60.1147 70.7302 64.6077 79.7728 65.2653 81.8317C65.2799 81.8744 65.2873 81.8922 65.2873 81.8922C65.3534 81.9526 65.7061 82.1162 65.9596 82.2371C67.9507 83.1723 70.0448 84.4631 71.8192 89.0004C74.0859 94.7752 69.1447 99.8068 65.9265 102.335C65.9486 102.339 65.9706 102.339 65.9927 102.342C68.8692 102.73 73.0646 101.571 75.1145 100.618C73.2923 98.548 72.6825 95.4188 72.767 92.8621C72.8552 90.3125 73.7075 87.6527 75.3055 84.9645C78.9682 78.7914 84.567 75.3991 90.489 71.8076C93.777 69.8163 97.1752 67.7539 100.412 65.1083L100.669 64.9021C102.914 63.0708 104.258 61.844 104.012 60.251C103.927 59.6962 103.758 59.3122 103.553 59.1984C103.222 59.0171 102.271 59.0277 100.662 59.6571C92.8145 62.7223 91.1797 63.3588 89.4604 62.6121C88.237 62.0823 87.8366 60.987 87.5684 60.2616C87.5133 60.1123 87.4619 59.9665 87.4141 59.8278C87.1863 59.1806 87.0578 58.825 86.7234 58.3841C86.7124 58.3734 86.683 58.3521 86.6243 58.313C86.5508 58.2703 86.4553 58.2241 86.3671 58.1743C85.0556 57.488 84.4127 56.5848 84.4531 55.4825C83.6485 55.2123 83.0755 54.5935 82.7118 54.2024C82.6383 54.1206 82.5354 54.0104 82.4509 53.925C82.1864 53.957 81.7162 54.0921 81.4149 54.1775C80.2724 54.5011 77.2453 55.358 76.0807 52.3675C75.8456 51.7666 75.7096 51.091 75.6692 50.3122C75.5921 48.8223 75.897 47.2684 76.1946 45.7678C76.5252 44.0787 76.8705 42.3292 76.4848 41.3371C74.2218 35.4841 73.7662 29.3644 75.1733 23.6394C76.4885 18.2878 79.3723 13.3771 83.5163 9.43718C92.6859 0.721672 106.051 -1.78524 118.398 2.89433C125.874 5.7426 131.951 10.6035 136.462 17.3419C144.713 29.6774 146.877 47.1333 142.891 69.2261L140.959 79.9506L138.967 69.2367C138.876 68.7567 138.747 68.3477 138.567 67.9886C137.303 65.4319 133.975 64.0309 129.181 64.0309C126.469 64.0309 123.641 64.5074 121.613 65.3003C115.533 67.6899 111.168 73.0735 110.232 79.3532C109.302 85.537 109.64 92.1225 109.967 98.4875C110.54 109.706 111.04 119.389 104.262 122.97C103.703 123.265 103.101 123.51 102.421 123.717C100.831 124.204 98.8614 124.456 96.5727 124.456Z" fill="white"/>
</g>
<path d="M15.2061 175.054L16.179 169.826C17.9752 169.826 19.6965 169.739 21.343 169.564C23.0145 169.39 24.5986 169.041 26.0954 168.519C27.6171 167.996 29.0391 167.224 30.3613 166.203C31.6834 165.183 32.8809 163.813 33.9536 162.095L38.1447 164C37.995 164.473 37.8702 164.934 37.7705 165.382C37.6707 165.805 37.6208 166.154 37.6208 166.427C37.6208 167 37.758 167.498 38.0324 167.921C38.3318 168.344 38.8307 168.668 39.5292 168.892C40.2277 169.116 41.1882 169.228 42.4106 169.228C43.3585 169.228 44.0321 169.477 44.4312 169.975C44.8304 170.448 45.03 171.046 45.03 171.768C45.03 172.539 44.768 173.187 44.2441 173.71C43.7452 174.207 43.0093 174.456 42.0364 174.456C40.315 174.456 38.8182 174.22 37.5459 173.747C36.2986 173.274 35.3132 172.614 34.5897 171.768C33.8912 170.896 33.4796 169.9 33.3549 168.78L34.8517 168.929C33.9536 170 32.831 170.921 31.4839 171.693C30.1617 172.465 28.6524 173.1 26.956 173.598C25.2846 174.095 23.451 174.456 21.4553 174.68C19.4845 174.929 17.4014 175.054 15.2061 175.054ZM15.1687 175.054C12.4744 175.054 10.1918 174.842 8.32081 174.419C6.47475 174.021 4.96547 173.448 3.79297 172.701C2.64542 171.929 1.8097 171.033 1.28582 170.012C0.761941 168.992 0.5 167.871 0.5 166.651C0.5 165.855 0.562367 165.058 0.687101 164.261C0.836781 163.44 1.01141 162.643 1.21098 161.871C1.4355 161.1 1.63508 160.402 1.8097 159.78L6.48722 160.863C6.38744 161.311 6.27517 161.797 6.15044 162.319C6.02571 162.842 5.92592 163.353 5.85108 163.851C5.77624 164.324 5.73882 164.759 5.73882 165.158C5.73882 166.079 6.06313 166.9 6.71174 167.622C7.38531 168.319 8.48296 168.867 10.0047 169.266C11.5265 169.639 13.5721 169.826 16.1416 169.826L16.89 173.859L15.1687 175.054ZM22.1288 157.988C21.4054 157.988 20.7817 157.739 20.2578 157.241C19.7589 156.718 19.5094 156.108 19.5094 155.411C19.5094 154.689 19.7589 154.066 20.2578 153.544C20.7817 153.021 21.4054 152.759 22.1288 152.759C22.8273 152.759 23.4261 153.021 23.925 153.544C24.4239 154.066 24.6734 154.689 24.6734 155.411C24.6734 156.108 24.4239 156.718 23.925 157.241C23.4261 157.739 22.8273 157.988 22.1288 157.988ZM15.6552 157.95C14.9317 157.95 14.308 157.701 13.7841 157.203C13.2852 156.68 13.0357 156.071 13.0357 155.373C13.0357 154.651 13.2852 154.029 13.7841 153.506C14.308 152.983 14.9317 152.722 15.6552 152.722C16.3537 152.722 16.9524 152.983 17.4513 153.506C17.9503 154.029 18.1997 154.651 18.1997 155.373C18.1997 156.071 17.9503 156.68 17.4513 157.203C16.9524 157.701 16.3537 157.95 15.6552 157.95Z" fill="white"/>
<path d="M66.4942 174.456C65.3467 174.456 64.274 174.369 63.2761 174.195C62.3032 174.021 61.4051 173.722 60.5818 173.299C59.7586 172.851 59.0227 172.241 58.374 171.469C57.7504 170.697 57.2265 169.726 56.8024 168.556L59.7586 166.203C60.2076 167 60.7565 167.622 61.4051 168.071C62.0537 168.494 62.827 168.793 63.7251 168.967C64.6232 169.141 65.671 169.228 66.8684 169.228C67.8164 169.228 68.49 169.477 68.8891 169.975C69.2882 170.448 69.4878 171.046 69.4878 171.768C69.4878 172.539 69.2259 173.187 68.702 173.71C68.2031 174.207 67.4671 174.456 66.4942 174.456ZM42.0214 174.456L42.3956 169.228C43.7428 169.228 45.0774 169.154 46.3996 169.004C47.7218 168.855 49.0065 168.631 50.2539 168.332C51.5012 168.033 52.6862 167.647 53.8088 167.174C54.9563 166.701 56.029 166.129 57.0269 165.456C56.2785 165.008 55.4677 164.622 54.5946 164.299C53.7215 163.975 52.786 163.739 51.7881 163.589C50.8152 163.415 49.7799 163.328 48.6822 163.328C48.2831 163.328 47.859 163.34 47.4099 163.365C46.9858 163.39 46.5493 163.44 46.1002 163.515C45.6512 163.564 45.2022 163.639 44.7531 163.739L44.0047 158.622C44.7282 158.423 45.489 158.286 46.2873 158.212C47.1106 158.112 47.834 158.062 48.4577 158.062C49.8048 158.062 51.0397 158.212 52.1623 158.51C53.3098 158.809 54.3576 159.183 55.3056 159.631C56.2785 160.079 57.1766 160.527 57.9998 160.975C58.848 161.423 59.6463 161.797 60.3947 162.095C61.1681 162.394 61.9165 162.544 62.6399 162.544H64.0245L64.6232 167.51C63.5505 167.56 62.5401 167.772 61.5922 168.145C60.6691 168.494 59.7461 168.942 58.8231 169.49C57.925 170.012 56.9521 170.56 55.9043 171.133C54.8815 171.705 53.7215 172.241 52.4242 172.739C51.127 173.237 49.6302 173.647 47.9338 173.971C46.2374 174.295 44.2667 174.456 42.0214 174.456Z" fill="white"/>
<path d="M85.889 174.942C83.5689 174.942 81.6355 174.842 80.0888 174.643C78.5671 174.444 77.3322 174.158 76.3842 173.784C75.4363 173.411 74.6879 172.963 74.139 172.44C73.5902 171.917 73.1412 171.344 72.7919 170.722L73.8397 170.423C73.216 171.618 72.505 172.502 71.7067 173.075C70.9084 173.647 70.0727 174.021 69.1996 174.195C68.3264 174.369 67.4284 174.456 66.5053 174.456L66.8795 169.228C67.6529 169.228 68.2641 169.104 68.7131 168.855C69.1622 168.606 69.5239 168.195 69.7983 167.622C70.0977 167.05 70.3721 166.29 70.6215 165.344C70.871 164.398 71.1704 163.241 71.5196 161.871L76.272 163.029C76.0974 163.701 75.9477 164.286 75.8229 164.784C75.7232 165.282 75.6358 165.718 75.561 166.091C75.5111 166.44 75.4862 166.726 75.4862 166.95C75.4862 167.423 75.5984 167.846 75.8229 168.22C76.0475 168.568 76.484 168.855 77.1326 169.079C77.7813 169.278 78.7292 169.44 79.9766 169.564C81.2489 169.664 82.9078 169.714 84.9535 169.714C87.1238 169.714 88.9325 169.639 90.3794 169.49C91.8263 169.315 92.9738 169.079 93.822 168.78C94.6952 168.456 95.3188 168.071 95.693 167.622C96.0672 167.149 96.2543 166.614 96.2543 166.017C96.2543 165.544 96.1421 165.108 95.9175 164.71C95.718 164.286 95.3812 163.938 94.9072 163.664C94.4332 163.39 93.822 163.253 93.0736 163.253C92.1755 163.253 91.265 163.477 90.3419 163.925C89.4439 164.349 88.5583 164.921 87.6851 165.643C86.812 166.34 85.9763 167.124 85.178 167.996C84.4046 168.867 83.7061 169.739 83.0824 170.61L77.4694 169.975C78.4424 168.407 79.54 166.9 80.7624 165.456C81.9848 164.012 83.2945 162.743 84.6915 161.647C86.0885 160.527 87.5354 159.643 89.0322 158.996C90.5291 158.349 92.0508 158.025 93.5975 158.025C95.2689 158.025 96.6909 158.349 97.8634 158.996C99.0359 159.643 99.934 160.539 100.558 161.685C101.181 162.83 101.493 164.149 101.493 165.643C101.493 167.461 100.969 169.066 99.9215 170.461C98.8987 171.855 97.2397 172.95 94.9446 173.747C92.6745 174.544 89.6559 174.942 85.889 174.942Z" fill="white"/>
<path d="M113.535 189.402V186.788L122.366 184.174V186.863L113.535 189.402Z" fill="white"/>
<path d="M111.029 182.859L109.12 178.079C111.266 177.332 113 176.51 114.322 175.614C115.669 174.718 116.654 173.759 117.278 172.739C117.927 171.718 118.251 170.66 118.251 169.564C118.251 168.867 118.151 168.145 117.952 167.398C117.752 166.627 117.465 165.817 117.091 164.971C116.742 164.124 116.318 163.241 115.819 162.319L120.721 159.967C121.594 161.635 122.267 163.228 122.741 164.747C123.24 166.266 123.49 167.685 123.49 169.004C123.49 170.224 123.328 171.394 123.003 172.515C122.704 173.635 122.23 174.68 121.581 175.651C120.958 176.647 120.147 177.581 119.149 178.452C118.151 179.324 116.979 180.12 115.632 180.842C114.284 181.589 112.75 182.261 111.029 182.859ZM119.299 156.158C118.525 156.158 117.864 155.896 117.315 155.373C116.792 154.851 116.53 154.203 116.53 153.432C116.53 152.66 116.792 152 117.315 151.452C117.864 150.905 118.525 150.631 119.299 150.631C120.047 150.631 120.683 150.905 121.207 151.452C121.756 152 122.03 152.66 122.03 153.432C122.03 154.203 121.756 154.851 121.207 155.373C120.683 155.896 120.047 156.158 119.299 156.158Z" fill="white"/>
<path d="M128.735 174.27L127.949 146.934H133.188L133.974 174.27H128.735Z" fill="white"/>
<path d="M138.107 182.859L137.022 177.631C138.793 177.407 140.339 177.133 141.662 176.809C142.984 176.51 144.094 176.087 144.992 175.539C145.89 174.992 146.564 174.245 147.013 173.299C147.462 172.328 147.686 171.083 147.686 169.564C147.686 169.017 147.636 168.469 147.537 167.921C147.437 167.349 147.287 166.826 147.088 166.353C146.888 165.88 146.626 165.494 146.302 165.195C146.002 164.896 145.641 164.747 145.217 164.747C144.768 164.747 144.368 164.909 144.019 165.232C143.67 165.531 143.395 165.917 143.196 166.39C142.996 166.838 142.896 167.299 142.896 167.772C142.896 168.12 142.984 168.419 143.158 168.668C143.333 168.892 143.595 169.066 143.944 169.191C144.294 169.29 144.73 169.34 145.254 169.34C145.853 169.34 146.464 169.278 147.088 169.154C147.736 169.004 148.322 168.805 148.846 168.556L148.996 172.627C148.397 173.1 147.711 173.523 146.938 173.896C146.165 174.245 145.229 174.419 144.131 174.419C143.233 174.419 142.398 174.319 141.624 174.12C140.851 173.896 140.165 173.56 139.566 173.112C138.992 172.664 138.543 172.091 138.219 171.394C137.895 170.672 137.732 169.813 137.732 168.817C137.732 167.598 137.932 166.415 138.331 165.27C138.73 164.124 139.279 163.104 139.978 162.207C140.701 161.286 141.524 160.564 142.447 160.041C143.395 159.494 144.393 159.22 145.441 159.22C146.688 159.22 147.774 159.531 148.697 160.154C149.645 160.776 150.43 161.598 151.054 162.618C151.678 163.614 152.152 164.697 152.476 165.867C152.8 167.037 152.963 168.158 152.963 169.228C152.963 172.041 152.364 174.432 151.166 176.398C149.969 178.365 148.26 179.884 146.04 180.954C143.82 182.05 141.175 182.685 138.107 182.859Z" fill="white"/>
<path d="M157.53 174.27L156.819 149.548H162.057L162.768 174.27H157.53ZM161.795 145.925C161.047 145.925 160.373 145.801 159.775 145.552C159.176 145.278 158.627 145.017 158.128 144.768C157.629 144.519 157.168 144.394 156.744 144.394C156.295 144.394 155.883 144.506 155.509 144.73C155.16 144.954 154.785 145.266 154.386 145.664L152.627 144.021C153.301 143.174 153.975 142.539 154.648 142.116C155.347 141.693 156.045 141.481 156.744 141.481C157.367 141.481 157.941 141.606 158.465 141.855C158.989 142.104 159.513 142.353 160.037 142.602C160.585 142.851 161.172 142.975 161.795 142.975C162.195 142.975 162.569 142.913 162.918 142.788C163.267 142.639 163.691 142.415 164.19 142.116L165.5 144.17C164.602 144.942 163.854 145.427 163.255 145.627C162.681 145.826 162.195 145.925 161.795 145.925Z" fill="white"/>
</svg>
