<svg width="72" height="66" viewBox="0 0 72 66" fill="none" xmlns="http://www.w3.org/2000/svg">
<path d="M17.0283 55.5697L16.3076 65.8053C16.3076 65.8053 46.7926 44.343 50.5901 38.0636C54.3877 31.7841 47.2391 16.2503 47.2391 16.2503L31.3773 22.6949L17.0283 55.5697Z" fill="#F8AD81"/>
<path d="M65.9827 11.5525L71.5499 11.9151C71.5499 11.9151 74.4659 16.2665 65.4531 16.629L65.9827 11.5525Z" fill="#F8AD81"/>
<path d="M65.9827 18.2606L71.5499 18.6235C71.5499 18.6235 74.4659 22.9748 65.4531 23.3373L65.9827 18.2606Z" fill="#F8AD81"/>
<path d="M65.9827 25.5129L71.5499 25.8755C71.5499 25.8755 74.4659 30.2268 65.4531 30.5893L65.9827 25.5129Z" fill="#F8AD81"/>
<path d="M64.3929 32.7651L69.96 33.1277C69.96 33.1277 72.8761 37.4791 63.8633 37.8415L64.3929 32.7651Z" fill="#F8AD81"/>
<path d="M68.6938 13.3003H68.2713V5.38591C68.2713 4.17105 67.5657 3.00596 66.3096 2.14693C65.0536 1.2879 63.3501 0.805298 61.5738 0.805298H37.0572C35.2809 0.805331 33.5774 1.28795 32.3214 2.14697C31.0655 3.006 30.3599 4.17108 30.3599 5.38591V48.8045C30.3599 50.0193 31.0655 51.1844 32.3215 52.0435C33.5775 52.9025 35.2811 53.3851 37.0574 53.3851H61.574C62.4535 53.3851 63.3244 53.2666 64.137 53.0364C64.9496 52.8062 65.6879 52.4688 66.3098 52.0435C66.9318 51.6181 67.4251 51.1132 67.7617 50.5574C68.0983 50.0017 68.2715 49.406 68.2715 48.8045V18.9338H68.694L68.6938 13.3003Z" fill="#011808"/>
<path d="M61.8432 2.02759H58.6429C58.79 2.27434 58.8461 2.54204 58.8064 2.80713C58.7666 3.07222 58.6321 3.32655 58.4148 3.54772C58.1975 3.7689 57.904 3.95013 57.5601 4.07547C57.2163 4.2008 56.8327 4.26638 56.443 4.26643H42.3981C42.0085 4.26641 41.6248 4.20084 41.2809 4.07551C40.937 3.95018 40.6435 3.76894 40.4261 3.54774C40.2088 3.32654 40.0743 3.07219 40.0345 2.80707C39.9948 2.54196 40.051 2.27422 40.1981 2.02746H37.2091C35.8826 2.02746 34.6105 2.38783 33.6725 3.02931C32.7345 3.67079 32.2076 4.54082 32.2075 5.44802V48.803C32.2075 49.2522 32.3369 49.697 32.5882 50.1121C32.8395 50.5271 33.2079 50.9042 33.6724 51.2219C34.1368 51.5395 34.6882 51.7915 35.295 51.9634C35.9018 52.1353 36.5522 52.2238 37.2091 52.2238H61.8432C63.1697 52.2238 64.4418 51.8634 65.3798 51.2219C66.3178 50.5804 66.8447 49.7103 66.8447 48.8031V5.44777C66.8447 4.54053 66.3178 3.67046 65.3798 3.02893C64.4418 2.38741 63.1697 2.02698 61.8432 2.02695V2.02759Z" fill="white"/>
<path d="M0 54.0185L15.2176 42.1025L16.2787 27.2354L27.4125 14.5438L30.5938 9.10456C30.5938 9.10456 38.0157 9.64853 31.9189 19.9823L29.4006 25.5122C31.6709 28.8563 32.8472 32.4989 32.8473 36.1859V48.8577C32.8473 51.8415 19.0979 63.3227 16.678 65.8053L0 54.0185Z" fill="#F8AD81"/>
<path opacity="0.2" d="M29.7194 15.6193L27.5059 14.8754L27.5813 14.7706L29.6264 15.4581L32.7136 9.92191L32.8734 9.96361L29.7194 15.6193Z" fill="#0D0D0D"/>
<path opacity="0.2" d="M68.2426 12.6861L68.3018 12.7959L71.5808 11.9698L71.5217 11.86L68.2426 12.6861Z" fill="#0D0D0D"/>
<path opacity="0.2" d="M68.2426 19.4708L68.3018 19.5806L71.5808 18.7545L71.5217 18.6447L68.2426 19.4708Z" fill="#0D0D0D"/>
<path opacity="0.2" d="M68.2426 26.7236L68.3018 26.8334L71.5808 26.0073L71.5217 25.8975L68.2426 26.7236Z" fill="#0D0D0D"/>
<path opacity="0.2" d="M68.2063 33.6763L68.2803 33.7817L69.8767 33.2577L69.8027 33.1522L68.2063 33.6763Z" fill="#0D0D0D"/>
<path d="M49.5271 33.3803C54.6025 33.3803 58.7169 30.5664 58.7169 27.0952C58.7169 23.624 54.6025 20.8101 49.5271 20.8101C44.4518 20.8101 40.3374 23.624 40.3374 27.0952C40.3374 30.5664 44.4518 33.3803 49.5271 33.3803Z" fill="#0B6E27"/>
<path d="M48.8165 29.4086C48.0598 29.9549 47.0259 29.9052 46.325 29.2889L45.2807 28.3704C44.7356 27.8911 44.8379 27.0148 45.4787 26.6739C45.8602 26.4709 46.3276 26.5255 46.6521 26.8109L46.8538 26.9882C47.3537 27.4278 48.0912 27.4632 48.631 27.0735L52.5433 24.249C52.8781 24.0073 53.327 23.9959 53.6735 24.2205C54.2643 24.6033 54.2859 25.4601 53.7151 25.8721L48.8165 29.4086Z" fill="white"/>
</svg>
