<svg width="72" height="66" viewBox="0 0 72 66" fill="none" xmlns="http://www.w3.org/2000/svg">
<path d="M51.5339 52.8683C62.837 42.1413 65.0452 26.1171 56.4661 17.0771C47.8869 8.0372 31.7691 9.40479 20.4661 20.1317C9.16297 30.8587 6.95478 46.8829 15.5339 55.9229C24.1131 64.9628 40.2308 63.5952 51.5339 52.8683Z" fill="#EEF6F0"/>
<path d="M10.2701 64.3454C-1.57021 51.8691 1.47737 29.7536 17.0771 14.9491C32.6768 0.1445 54.9213 -1.74295 66.7617 10.7333" stroke="#EEF6F0" stroke-width="2" stroke-miterlimit="10"/>
<path d="M46.924 26.9579H22.9015C20.5808 26.9579 18.6995 28.8392 18.6995 31.16V41.7064C18.6995 44.0273 20.5808 45.9085 22.9015 45.9085H26.9888L27.5194 49.4399C27.6156 50.0804 28.3405 50.4086 28.8853 50.0581L35.3367 45.9085H46.924C49.2448 45.9085 51.1261 44.0273 51.1261 41.7064V31.16C51.1261 28.8392 49.2448 26.9579 46.924 26.9579Z" fill="#011808"/>
<path d="M50.4944 31.8009C53.518 31.8009 55.969 29.3498 55.969 26.3263C55.969 23.3027 53.518 20.8517 50.4944 20.8517C47.4708 20.8517 45.0198 23.3027 45.0198 26.3263C45.0198 29.3498 47.4708 31.8009 50.4944 31.8009Z" fill="#0B6E27"/>
</svg>
