<svg width="380" height="73" viewBox="0 0 380 73" fill="none" xmlns="http://www.w3.org/2000/svg">
<path d="M230.794 42.2405C231.455 42.5915 232.275 42.3408 232.627 41.6805C232.979 41.0202 232.728 40.2003 232.067 39.8492C231.407 39.4982 230.586 39.7489 230.235 40.4092C229.883 41.0696 230.134 41.8894 230.794 42.2405Z" fill="#CF7777"/>
<path d="M229.809 57.3613C230.47 57.7124 231.29 57.4616 231.642 56.8013C231.993 56.141 231.743 55.3211 231.082 54.9701C230.421 54.6191 229.601 54.8698 229.249 55.5301C228.898 56.1904 229.148 57.0103 229.809 57.3613Z" fill="#0B6E27"/>
<path d="M225.738 21.7543C226.949 22.4989 227.966 23.5198 228.705 24.7332C229.445 25.9467 229.886 27.3181 229.993 28.7351C230.021 29.1355 230.091 29.5958 229.763 29.897C229.643 30.0148 229.485 30.0881 229.317 30.1049C229.149 30.1218 228.981 30.0812 228.839 29.9898C228.674 29.852 228.56 29.6637 228.513 29.4541C228.466 29.2444 228.49 29.0253 228.581 28.8305C228.671 28.6358 228.824 28.4764 229.014 28.3769C229.205 28.2775 229.423 28.2437 229.634 28.2807C230.7 28.3719 231.272 29.41 231.737 30.2432C232.795 32.1411 234.068 34.0252 235.958 35.1815C237.707 36.2518 240.023 36.5735 241.863 35.5409C242.184 35.3612 241.883 34.8747 241.562 35.0546C239.737 36.0795 237.425 35.5656 235.799 34.3938C234.842 33.6739 234.016 32.7956 233.356 31.7969C233.007 31.2909 232.687 30.7656 232.384 30.2311C232.11 29.6958 231.789 29.1858 231.425 28.7072C230.796 27.9493 229.716 27.4084 228.75 27.8709C227.848 28.302 227.624 29.6986 228.395 30.3643C228.567 30.5042 228.772 30.5993 228.99 30.6409C229.208 30.6826 229.433 30.6695 229.645 30.6029C229.857 30.5363 230.049 30.4183 230.204 30.2594C230.358 30.1005 230.472 29.9056 230.533 29.6923C230.668 29.228 230.571 28.6518 230.509 28.1807C230.325 26.7623 229.825 25.4034 229.046 24.204C228.267 23.0046 227.228 21.9951 226.007 21.25C225.69 21.0615 225.423 21.5666 225.738 21.7543Z" fill="#E0E0E0"/>
<path d="M264.704 19.5837C263.741 18.9916 262.933 18.1797 262.344 17.2148C261.756 16.2498 261.405 15.1592 261.32 14.0323C261.298 13.7136 261.242 13.3472 261.502 13.1081C261.599 13.0145 261.724 12.9562 261.857 12.9427C261.991 12.9293 262.125 12.9616 262.238 13.0342C262.368 13.1441 262.459 13.2939 262.495 13.4603C262.532 13.6268 262.513 13.8007 262.441 13.9553C262.369 14.1099 262.248 14.2365 262.097 14.3157C261.946 14.3949 261.773 14.4222 261.605 14.3935C260.758 14.3204 260.303 13.4955 259.933 12.8326C259.091 11.3231 258.079 9.82464 256.575 8.90449C255.185 8.0535 253.342 7.79713 251.879 8.61848C251.622 8.76219 251.862 9.14895 252.117 9.00523C253.569 8.19059 255.409 8.59773 256.701 9.53059C257.462 10.1032 258.119 10.8019 258.645 11.5963C258.922 11.9987 259.176 12.4166 259.417 12.8423C259.635 13.2681 259.89 13.6737 260.18 14.0544C260.68 14.6573 261.538 15.0869 262.307 14.7192C262.478 14.6262 262.625 14.4945 262.736 14.3346C262.847 14.1747 262.92 13.991 262.947 13.7983C262.975 13.6055 262.956 13.409 262.894 13.2245C262.832 13.04 262.728 12.8727 262.589 12.7358C262.452 12.6244 262.29 12.5488 262.116 12.5157C261.943 12.4825 261.764 12.4929 261.595 12.5458C261.427 12.5988 261.274 12.6927 261.151 12.819C261.028 12.9454 260.938 13.1004 260.889 13.2701C260.817 13.6683 260.824 14.0767 260.908 14.4724C261.055 15.6007 261.452 16.6817 262.072 17.6358C262.692 18.5899 263.519 19.3927 264.491 19.9852C264.742 20.1353 264.955 19.7333 264.704 19.5837Z" fill="#E0E0E0"/>
<path d="M258.853 32.7824L257.657 32.1469L255.566 36.0751L256.762 36.7107L258.853 32.7824Z" fill="#E0E0E0"/>
<path d="M240.961 19.7613L242.236 19.3716L240.956 15.1878L239.681 15.5776L240.961 19.7613Z" fill="#A3A3A3"/>
<path d="M218.16 61.7953L218.55 63.0684L222.737 61.7882L222.348 60.5151L218.16 61.7953Z" fill="#CF7777"/>
<path d="M184.789 62.277C197.015 62.277 206.926 52.3735 206.926 40.157C206.926 27.9405 197.015 18.0371 184.789 18.0371C172.563 18.0371 162.651 27.9405 162.651 40.157C162.651 52.3735 172.563 62.277 184.789 62.277Z" fill="#0B6E27"/>
<path d="M182.594 48.5951C182.096 48.5959 181.612 48.4349 181.213 48.1363L181.189 48.1177L175.987 44.1411C175.505 43.7666 175.191 43.217 175.114 42.6122C175.036 42.0073 175.201 41.3963 175.572 40.9124C175.943 40.4284 176.491 40.1108 177.096 40.0288C177.7 39.9467 178.313 40.1069 178.8 40.4744L182.17 43.0566L190.133 32.6761C190.318 32.4352 190.548 32.2331 190.811 32.0812C191.073 31.9294 191.363 31.8307 191.664 31.7909C191.965 31.7512 192.271 31.771 192.564 31.8494C192.858 31.9278 193.132 32.0632 193.373 32.2478L193.324 32.3163L193.375 32.2478C193.861 32.6207 194.179 33.1712 194.259 33.7783C194.34 34.3854 194.176 34.9996 193.803 35.486L184.437 47.6904C184.22 47.9716 183.942 48.1991 183.623 48.3553C183.304 48.5115 182.953 48.5923 182.598 48.5913L182.594 48.5951Z" fill="white"/>
<path d="M170 23.6715C169.787 23.6708 169.583 23.5858 169.432 23.435C169.281 23.2842 169.196 23.0799 169.195 22.8668C169.194 22.8035 169.202 22.7403 169.217 22.6788L173.384 4.33509C173.416 4.1969 173.483 4.06942 173.579 3.96543C173.676 3.86143 173.798 3.78458 173.933 3.74255C174.069 3.70052 174.213 3.69481 174.351 3.72597C174.49 3.75713 174.618 3.82408 174.722 3.92011L188.54 16.7046C188.644 16.8009 188.72 16.9228 188.762 17.0581C188.805 17.1934 188.81 17.3374 188.779 17.4756C188.748 17.6138 188.681 17.7414 188.585 17.8457C188.489 17.95 188.367 18.0272 188.232 18.0697L170.243 23.6353C170.164 23.6593 170.083 23.6715 170 23.6715Z" fill="#011808"/>
<path d="M181.301 10.2617L172.622 8.53584L172.759 7.93359L180.433 9.45789L181.301 10.2617Z" fill="white"/>
<path d="M188.137 16.5876L171.542 13.2882L171.679 12.6829L187.267 15.7805L188.137 16.5876Z" fill="white"/>
<path d="M182.2 19.7412L180.954 20.126L170.464 18.0402L170.6 17.4348L182.2 19.7412Z" fill="white"/>
<path d="M137.929 50.5018C138.913 50.2568 139.511 49.2617 139.266 48.2791C139.021 47.2965 138.025 46.6985 137.041 46.9435C136.058 47.1885 135.46 48.1836 135.705 49.1662C135.95 50.1489 136.946 50.7468 137.929 50.5018Z" fill="#0B6E27"/>
<path d="M121.612 7.05062C122.314 6.87564 122.742 6.16484 122.567 5.46302C122.392 4.76119 121.68 4.33411 120.978 4.50909C120.275 4.68407 119.848 5.39487 120.023 6.09669C120.198 6.79852 120.91 7.22561 121.612 7.05062Z" fill="#CF7777"/>
<path d="M129.16 41.3477C129.862 41.1728 130.29 40.462 130.115 39.7601C129.939 39.0583 129.228 38.6312 128.526 38.8062C127.823 38.9812 127.396 39.692 127.571 40.3938C127.746 41.0956 128.457 41.5227 129.16 41.3477Z" fill="#0B6E27"/>
<path d="M135.887 61.8088C136.59 61.6338 137.017 60.923 136.842 60.2212C136.667 59.5194 135.956 59.0923 135.253 59.2673C134.551 59.4423 134.123 60.153 134.299 60.8549C134.474 61.5567 135.185 61.9838 135.887 61.8088Z" fill="#F2F2F2"/>
<path d="M113.406 19.3564C114.108 19.1814 114.536 18.4706 114.361 17.7688C114.186 17.067 113.474 16.6399 112.772 16.8149C112.069 16.9899 111.642 17.7007 111.817 18.4025C111.992 19.1043 112.704 19.5314 113.406 19.3564Z" fill="#E0E0E0"/>
<path d="M148.091 42.7995C147.056 42.4478 146.118 41.8558 145.356 41.0722C144.594 40.2886 144.028 39.3356 143.705 38.2913C143.615 37.9949 143.484 37.6622 143.678 37.3809C143.749 37.2719 143.854 37.1901 143.977 37.1488C144.1 37.1075 144.234 37.1092 144.356 37.1535C144.502 37.2291 144.62 37.3509 144.69 37.4999C144.761 37.649 144.78 37.8171 144.746 37.9782C144.711 38.1394 144.624 38.2848 144.499 38.3919C144.374 38.499 144.216 38.5619 144.052 38.5709C143.237 38.6845 142.63 38.0033 142.139 37.458C141.019 36.2165 139.743 35.0197 138.127 34.4747C136.631 33.9704 134.839 34.1246 133.636 35.213C133.425 35.4035 133.735 35.7159 133.945 35.5264C135.138 34.4469 136.962 34.4369 138.381 35.0383C139.222 35.4148 139.992 35.9324 140.658 36.5686C141.007 36.8885 141.336 37.2279 141.655 37.5771C141.952 37.9319 142.28 38.2595 142.636 38.5563C143.237 39.0173 144.139 39.2385 144.785 38.7268C144.927 38.6024 145.037 38.4467 145.107 38.2721C145.178 38.0975 145.206 37.9088 145.191 37.7212C145.175 37.5337 145.116 37.3523 145.017 37.1917C144.919 37.0311 144.785 36.8958 144.625 36.7964C144.471 36.7207 144.302 36.6842 144.131 36.6901C143.96 36.696 143.794 36.7442 143.646 36.8302C143.499 36.9163 143.375 37.0376 143.286 37.1833C143.196 37.329 143.145 37.4945 143.136 37.6649C143.153 38.0558 143.247 38.4395 143.412 38.7945C143.793 39.827 144.401 40.7609 145.191 41.5275C145.982 42.2941 146.934 42.8737 147.978 43.2238C148.248 43.3114 148.362 42.8868 148.093 42.7996L148.091 42.7995Z" fill="#E0E0E0"/>
<path d="M116.422 33.8925L117.526 34.5555L119.706 30.9301L118.602 30.2671L116.422 33.8925Z" fill="#A3A3A3"/>
<path d="M116.258 64.4703C117.242 64.2253 117.84 63.2302 117.595 62.2476C117.35 61.265 116.354 60.667 115.37 60.912C114.387 61.157 113.789 62.1521 114.034 63.1348C114.279 64.1174 115.275 64.7153 116.258 64.4703Z" fill="#0B6E27"/>
</svg>
