<svg width="25" height="24" viewBox="0 0 25 24" fill="none" xmlns="http://www.w3.org/2000/svg">
<path d="M12.5 4.35418C13.2329 3.52375 14.3053 3 15.5 3C17.7091 3 19.5 4.79086 19.5 7C19.5 9.20914 17.7091 11 15.5 11C14.3053 11 13.2329 10.4762 12.5 9.64582M15.5 21H3.5V20C3.5 16.6863 6.18629 14 9.5 14C12.8137 14 15.5 16.6863 15.5 20V21ZM15.5 21H21.5V20C21.5 16.6863 18.8137 14 15.5 14C14.4071 14 13.3825 14.2922 12.5 14.8027M13.5 7C13.5 9.20914 11.7091 11 9.5 11C7.29086 11 5.5 9.20914 5.5 7C5.5 4.79086 7.29086 3 9.5 3C11.7091 3 13.5 4.79086 13.5 7Z" stroke="#707070" stroke-width="1.5" stroke-linecap="round" stroke-linejoin="round"/>
</svg>
