<svg width="22" height="22" viewBox="0 0 22 22" fill="none" xmlns="http://www.w3.org/2000/svg">
<path d="M2.19995 4C2.19995 1.79086 3.99081 0 6.19995 0H13.2L19.7999 6.6V18C19.7999 20.2091 18.0091 22 15.7999 22H6.19995C3.99081 22 2.19995 20.2091 2.19995 18V4Z" fill="url(#paint0_linear_2522_11353)"/>
<path d="M13.2 0L19.8 6.6H17.1999C14.9908 6.6 13.2 4.80914 13.2 2.6V0Z" fill="#F2F2F2"/>
<path d="M13.791 13.8571C13.242 13.8571 12.555 13.9528 12.3303 13.9865C11.4001 13.0151 11.1354 12.463 11.0759 12.3157C11.1566 12.1085 11.4373 11.321 11.4771 10.3097C11.4968 9.80338 11.3898 9.42503 11.1591 9.18519C10.9288 8.94575 10.6501 8.92712 10.5701 8.92712C10.2898 8.92712 9.81964 9.06886 9.81964 10.018C9.81964 10.8415 10.2036 11.7154 10.3097 11.9412C9.75055 13.5694 9.15019 14.6841 9.0227 14.9133C6.77569 15.7593 6.59998 16.5773 6.59998 16.8091C6.59998 17.2258 6.89668 17.4745 7.39365 17.4745C8.6011 17.4745 9.70297 15.4473 9.88516 15.0953C10.7427 14.7536 11.8905 14.5419 12.1823 14.4914C13.0193 15.2887 13.9873 15.5015 14.3892 15.5015C14.6917 15.5015 15.3999 15.5015 15.3999 14.7732C15.4 14.097 14.5332 13.8571 13.791 13.8571ZM13.7328 14.3351C14.385 14.3351 14.5573 14.5508 14.5573 14.6649C14.5573 14.7364 14.5302 14.9699 14.1806 14.9699C13.8671 14.9699 13.3259 14.7887 12.7934 14.3956C13.0154 14.3665 13.344 14.3351 13.7328 14.3351ZM10.5359 9.39051C10.5954 9.39051 10.6345 9.40962 10.6668 9.45439C10.8544 9.71467 10.7031 10.5651 10.519 11.2307C10.3413 10.66 10.208 9.78439 10.3956 9.47633C10.4323 9.41621 10.4742 9.39051 10.5359 9.39051ZM10.2192 14.4847C10.4553 14.0076 10.7199 13.3124 10.8641 12.9193C11.1526 13.4021 11.5406 13.8504 11.765 14.0934C11.0663 14.2407 10.5376 14.3879 10.2192 14.4847ZM7.06902 16.8728C7.05346 16.8543 7.05116 16.8154 7.06288 16.7687C7.08747 16.6709 7.27533 16.1858 8.63414 15.578C8.43957 15.8845 8.13541 16.3224 7.80126 16.6495C7.56605 16.8697 7.38289 16.9813 7.25688 16.9813C7.2118 16.9813 7.14969 16.969 7.06902 16.8728Z" fill="#3D3D3D"/>
<defs>
<linearGradient id="paint0_linear_2522_11353" x1="11" y1="0" x2="11" y2="22" gradientUnits="userSpaceOnUse">
<stop stop-color="#F9FAFB"/>
<stop offset="1" stop-color="#EDF0F3"/>
</linearGradient>
</defs>
</svg>
