<svg width="1128" height="2436" viewBox="0 0 1128 2436" fill="none" xmlns="http://www.w3.org/2000/svg">
<g clip-path="url(#clip0_2229_2566)">
<rect width="1127.68" height="2436" fill="#0B6E27"/>
<g opacity="0.04">
<g opacity="0.42">
<path d="M928.429 -1096.11L1079.02 -1200.55C1683.26 537.845 245.357 1540.54 2599.74 2070.84L2453.04 2172.58C1140.13 1876.85 947.838 1350.36 1081.39 583.309C1174.34 71.5193 1140.8 -485.187 928.44 -1096.13L928.429 -1096.11Z" fill="#0D0D0D"/>
<path d="M628.788 -888.327L778.336 -992.026C969.487 -442.202 1108.15 109.05 961.967 665.36C757.916 1457.91 1125.27 2007.8 2306.88 2273.94L2161.2 2374.96C1110.88 2138.35 568.465 1565.07 843.065 747.016C1042.49 146.269 798.693 -399.562 628.788 -888.327Z" fill="#0D0D0D"/>
<path d="M331.147 -681.913L479.749 -784.95C628.4 -357.277 977.341 183.132 724.713 828.37C379.564 1671.92 1097.01 2268.61 2016.06 2475.62L1871.39 2575.95C1083.63 2398.53 191.124 1778.4 606.79 909.354C912.644 219.668 458.567 -315.371 331.159 -681.933L331.147 -681.913Z" fill="#0D0D0D"/>
<path d="M35.194 -476.701L182.991 -579.182C289.186 -273.689 848.404 255.877 489.269 990.06C3.08623 1884.6 1070.65 2528.12 1727.09 2675.99L1583.19 2775.78C1058.04 2657.46 -184.572 1990.56 372.151 1070.49C784.512 291.856 120.147 -232.319 35.194 -476.701Z" fill="#0D0D0D"/>
<path d="M-287.714 -252.768L-121.861 -367.77C-58.1509 -184.499 711.354 334.254 245.806 1157.36C-381.475 2102.89 1036.19 2793.25 1430.1 2881.98L1268.1 2994.31C1005.54 2935.18 -587.189 2221.37 110.609 1250.35C629.434 382.799 -245.238 -130.576 -287.694 -252.756L-287.714 -252.768Z" fill="#0D0D0D"/>
<path d="M-623.881 -19.6426L-455.298 -136.535C-434.044 -75.4433 545.726 432.487 -26.3172 1344.52C-794.612 2341.04 973.146 3078.25 1104.42 3107.83L939.721 3222.04C939.721 3222.04 -1003.11 2461.41 -164.245 1439.39C461.06 482.857 -623.901 -19.6542 -623.901 -19.6542L-623.881 -19.6426Z" fill="#0D0D0D"/>
<path d="M-894.894 168.29L-760.932 75.3937C-760.932 75.3937 -99.3375 388.877 -103.022 972.728C-104.073 1134.25 -149.509 1318.34 -263.965 1519.47C-499.704 1847.47 -462.501 2144.03 -297.793 2375.72C42.8146 2854.95 883.9 3260.75 883.9 3260.75L831.081 3297.37C831.081 3297.37 36.4544 2833.11 -327.574 2417.02C-506.801 2212.2 -560.714 1922.75 -360.648 1597.4C-264.722 1398.63 -229.381 1213.41 -232.543 1052.26C-243.786 484.022 -894.905 168.311 -894.905 168.311L-894.894 168.29Z" fill="#0D0D0D"/>
<path d="M-1155.5 348.987L-1026.33 259.42C-1026.33 259.42 -385.262 577.417 -359.516 1129.98C-352.041 1290.83 -377.419 1477.13 -454.784 1673.53C-619.24 1996.25 -549.568 2278.27 -354.831 2456.55C30.5673 2809.29 780.842 3332.18 780.842 3332.18L732.863 3365.44C732.863 3365.44 24.7973 2784.58 -379.772 2494.49C-591.096 2342.98 -675.464 2068.23 -546.638 1748.12C-487.824 1554.07 -472.337 1366.71 -484.228 1206.15C-524.004 669.381 -1155.5 348.987 -1155.5 348.987Z" fill="#0D0D0D"/>
<path d="M-1407.74 523.9L-1282.56 437.106C-1282.56 437.106 -660.256 759.961 -606.842 1280.88C-590.398 1441.14 -596.149 1629.55 -636.406 1821.29C-729.59 2138.76 -631.481 2406.88 -402.646 2530.99C19.2663 2759.86 686.984 3397.26 686.984 3397.26L642.998 3427.75C642.998 3427.75 14.4857 2735.85 -423.658 2566.18C-670.56 2470.57 -781.819 2207.91 -724.288 1893.09C-702.57 1703.69 -706.453 1514.28 -727.582 1354.28C-794.135 849.225 -1407.76 523.888 -1407.76 523.888L-1407.74 523.9Z" fill="#0D0D0D"/>
<path d="M-1675.7 709.722L-1531.21 609.524C-1531.21 609.524 -925.891 937.323 -846.597 1426.54C-820.711 1586.31 -807.321 1776.75 -810.466 1963.76C-832.387 2275.95 -708.045 2534.42 -442.945 2600.24C11.2759 2712.93 600.696 3457.09 600.696 3457.09L537.392 3500.99C537.392 3500.99 -12.3284 2706.58 -483.243 2648.82C-766.191 2614.1 -903.958 2358.55 -917.658 2049.01C-933.019 1864.31 -955.781 1672.84 -986.615 1513.36C-1078.19 1039.92 -1675.68 709.734 -1675.68 709.734L-1675.7 709.722Z" fill="#0D0D0D"/>
<path d="M-2001.35 935.566L-1837.5 821.934C-1837.5 821.934 -1247.41 1154.43 -1143.99 1612.19C-1108.01 1771.32 -1076.09 1963.91 -1042.16 2146.27C-992.803 2453.15 -841.06 2706.83 -540.848 2709.41C-52.0939 2713.66 456.782 3556.9 456.782 3556.9L374.116 3614.23C374.116 3614.23 -92.5795 2723.01 -600.456 2771.43C-917.208 2801.59 -1083.7 2549.17 -1168.69 2244.91C-1221.15 2064.91 -1262.1 1871.16 -1303.36 1712.43C-1418.26 1270.17 -2001.35 935.566 -2001.35 935.566Z" fill="#0D0D0D"/>
</g>
</g>
<mask id="mask0_2229_2566" style="mask-type:luminance" maskUnits="userSpaceOnUse" x="391" y="960" width="343" height="342">
<path d="M391.766 960.715H733.173V1301.43H391.766V960.715Z" fill="white"/>
</mask>
<g mask="url(#mask0_2229_2566)">
<path d="M456.372 1247.55C479.428 1257.72 557.719 1290.82 599.619 1290.82C604.757 1290.82 609.031 1290.3 612.339 1289.28C613.525 1288.92 614.521 1288.52 615.416 1288.05C627.975 1281.41 626.778 1257.96 625.38 1230.82C624.465 1212.88 623.51 1194.34 626.205 1176.4C629.322 1155.53 643.822 1137.62 664.053 1129.68C670.84 1127.02 680.121 1125.43 688.869 1125.43C701.328 1125.43 711.303 1128.44 717.949 1134.05C725.048 1083.08 718.914 1042.71 699.639 1013.91C688.558 997.348 673.656 985.416 655.365 978.457C625.642 967.186 593.515 973.162 571.545 994.059C550.429 1014.13 544.194 1042.58 554.863 1070.17C556.985 1075.65 555.748 1081.91 554.561 1087.96C553.867 1091.45 553.154 1095.08 553.304 1097.89C553.335 1098.46 553.395 1098.93 553.465 1099.32C553.998 1099.18 554.581 1099.02 555.054 1098.88C557.608 1098.16 560.796 1097.26 564.104 1098.09C566.567 1098.71 568.257 1100.36 569.503 1101.7C570.871 1101.27 572.761 1101.02 574.782 1101.97L574.843 1102C577.477 1103.27 578.965 1106.03 578.664 1109.04C578.573 1109.92 578.352 1110.69 578.111 1111.35C578.131 1111.36 578.151 1111.37 578.171 1111.39C579.579 1112.24 580.645 1113.19 581.479 1114.3C583.36 1116.78 584.134 1118.95 584.878 1121.05C584.988 1121.38 585.109 1121.73 585.24 1122.08C588.618 1121.3 596.451 1118.24 606.708 1114.23C614.028 1111.37 619.729 1111.15 624.144 1113.6C626.647 1114.98 629.835 1117.93 630.78 1124.08C632.399 1134.57 624.335 1141.14 617.859 1146.42L617.175 1146.97C607.723 1154.7 598.08 1160.54 588.769 1166.18C573.083 1175.69 559.549 1183.91 550.871 1198.51C547.402 1204.36 545.552 1209.99 545.371 1215.24C545.18 1220.95 546.799 1228.21 550.811 1230.66C553.425 1232.27 554.652 1234.99 553.998 1237.78C551.977 1246.4 530.781 1250.58 525.22 1251.22C509.685 1253.02 503.611 1247.95 501.258 1243.37L499.026 1239.04L503.3 1236.52C503.531 1236.39 527.1 1221.91 521.66 1208.04C517.93 1198.51 514.28 1196.8 511.062 1195.29C508.488 1194.08 504.959 1192.42 503.501 1187.79C502.264 1183.92 491.867 1162.55 472.48 1154.89C460.685 1150.23 447.543 1151.61 433.426 1158.98C415.829 1168.2 404.818 1182.15 403.21 1197.27C402.898 1200.19 403.833 1203.12 405.834 1205.52L405.864 1205.56C408.8 1209.05 411.575 1212.77 414.26 1216.47C415.98 1214.33 418.443 1212.86 421.339 1212.29C422.003 1212.14 422.656 1212.05 423.32 1212.03C423.541 1212.02 423.762 1212.01 423.984 1212.01C427.634 1212.01 431.133 1213.49 434.381 1216.41C441.168 1222.35 447.825 1235.28 452.46 1245.78C453.667 1246.32 454.843 1246.86 456.02 1247.39C456.13 1247.44 456.251 1247.49 456.372 1247.55ZM599.619 1301.36C555.506 1301.36 475.336 1267.5 451.817 1257.13L451.445 1256.97C449.685 1256.15 447.905 1255.35 446.015 1254.53L444.054 1253.67L443.219 1251.74C437.417 1238.27 431.364 1227.99 427.04 1224.21L426.97 1224.15C425.834 1223.13 424.768 1222.55 423.984 1222.55L423.541 1222.61C423.018 1222.72 422.908 1222.89 422.847 1222.99C422.043 1224.24 423.25 1228.33 423.702 1229.87L431.575 1256.75L414.099 1234.5C411.937 1231.74 409.705 1228.62 407.533 1225.6C404.275 1221.06 400.907 1216.36 397.398 1212.22L397.317 1212.12C393.516 1207.56 391.747 1201.89 392.36 1196.19C394.331 1177.56 407.413 1160.63 428.227 1149.71C445.371 1140.76 461.641 1139.22 476.613 1145.13C499.83 1154.31 512.128 1179.06 513.928 1184.69C513.968 1184.81 513.988 1184.86 513.988 1184.86C514.169 1185.03 515.135 1185.47 515.828 1185.8C521.278 1188.36 527.01 1191.9 531.867 1204.32C538.071 1220.12 524.546 1233.89 515.738 1240.81C515.798 1240.82 515.859 1240.82 515.919 1240.83C523.792 1241.89 535.275 1238.72 540.886 1236.11C535.899 1230.45 534.23 1221.88 534.461 1214.89C534.702 1207.91 537.035 1200.63 541.409 1193.27C551.434 1176.37 566.758 1167.09 582.967 1157.26C591.967 1151.81 601.268 1146.16 610.127 1138.92L610.83 1138.36C616.974 1133.34 620.654 1129.99 619.981 1125.63C619.749 1124.11 619.287 1123.06 618.724 1122.75C617.819 1122.25 615.215 1122.28 610.81 1124C589.332 1132.39 584.858 1134.13 580.152 1132.09C576.803 1130.64 575.707 1127.64 574.973 1125.66C574.823 1125.25 574.682 1124.85 574.551 1124.47C573.928 1122.7 573.576 1121.72 572.661 1120.52C572.631 1120.49 572.55 1120.43 572.389 1120.32C572.188 1120.21 571.927 1120.08 571.685 1119.94C568.096 1118.06 566.336 1115.59 566.447 1112.57C564.244 1111.83 562.676 1110.14 561.68 1109.07C561.479 1108.85 561.198 1108.55 560.966 1108.31C560.242 1108.4 558.955 1108.77 558.131 1109C555.004 1109.89 546.718 1112.23 543.531 1104.05C542.887 1102.4 542.515 1100.55 542.404 1098.42C542.193 1094.35 543.028 1090.09 543.842 1085.98C544.747 1081.36 545.693 1076.57 544.637 1073.86C538.443 1057.84 537.196 1041.09 541.047 1025.42C544.647 1010.77 552.54 997.329 563.882 986.545C588.98 962.69 625.561 955.828 659.357 968.637C679.82 976.433 696.451 989.737 708.799 1008.18C731.383 1041.94 737.306 1089.72 726.396 1150.19L721.107 1179.55L715.657 1150.22C715.405 1148.91 715.053 1147.79 714.561 1146.8C711.102 1139.81 701.991 1135.97 688.869 1135.97C681.449 1135.97 673.706 1137.28 668.156 1139.45C651.514 1145.99 639.568 1160.72 637.004 1177.91C634.46 1194.84 635.385 1212.86 636.28 1230.28C637.849 1260.99 639.216 1287.49 620.665 1297.29C619.136 1298.1 617.487 1298.77 615.627 1299.34C611.273 1300.67 605.883 1301.36 599.619 1301.36Z" fill="white"/>
</g>
<path d="M376.912 1438.75L379.575 1424.44C384.492 1424.44 389.203 1424.2 393.71 1423.72C398.284 1423.25 402.62 1422.29 406.717 1420.86C410.882 1419.43 414.774 1417.32 418.393 1414.52C422.012 1411.73 425.29 1407.98 428.226 1403.28L439.697 1408.49C439.287 1409.79 438.946 1411.05 438.673 1412.28C438.4 1413.43 438.263 1414.39 438.263 1415.14C438.263 1416.71 438.639 1418.07 439.39 1419.23C440.209 1420.38 441.575 1421.27 443.487 1421.88C445.399 1422.5 448.027 1422.8 451.373 1422.8C453.968 1422.8 455.811 1423.49 456.904 1424.85C457.996 1426.14 458.543 1427.78 458.543 1429.75C458.543 1431.87 457.826 1433.64 456.392 1435.07C455.026 1436.43 453.012 1437.11 450.349 1437.11C445.638 1437.11 441.541 1436.47 438.058 1435.17C434.644 1433.88 431.947 1432.07 429.967 1429.75C428.055 1427.37 426.928 1424.64 426.587 1421.58L430.684 1421.99C428.226 1424.92 425.153 1427.44 421.466 1429.55C417.847 1431.66 413.716 1433.4 409.073 1434.76C404.498 1436.13 399.479 1437.11 394.017 1437.73C388.623 1438.41 382.921 1438.75 376.912 1438.75ZM376.81 1438.75C369.436 1438.75 363.188 1438.17 358.067 1437.01C353.014 1435.92 348.883 1434.35 345.674 1432.31C342.533 1430.2 340.245 1427.74 338.812 1424.95C337.378 1422.16 336.661 1419.09 336.661 1415.75C336.661 1413.57 336.831 1411.39 337.173 1409.21C337.582 1406.96 338.06 1404.78 338.607 1402.67C339.221 1400.56 339.767 1398.65 340.245 1396.94L353.048 1399.91C352.775 1401.13 352.468 1402.46 352.126 1403.89C351.785 1405.33 351.512 1406.72 351.307 1408.09C351.102 1409.38 351 1410.57 351 1411.66C351 1414.18 351.887 1416.43 353.663 1418.41C355.506 1420.32 358.511 1421.82 362.676 1422.91C366.841 1423.93 372.44 1424.44 379.473 1424.44L381.521 1435.48L376.81 1438.75ZM395.86 1392.04C393.88 1392.04 392.173 1391.36 390.739 1389.99C389.374 1388.56 388.691 1386.89 388.691 1384.98C388.691 1383.01 389.374 1381.3 390.739 1379.87C392.173 1378.44 393.88 1377.73 395.86 1377.73C397.772 1377.73 399.411 1378.44 400.777 1379.87C402.142 1381.3 402.825 1383.01 402.825 1384.98C402.825 1386.89 402.142 1388.56 400.777 1389.99C399.411 1391.36 397.772 1392.04 395.86 1392.04ZM378.141 1391.94C376.161 1391.94 374.454 1391.25 373.02 1389.89C371.655 1388.46 370.972 1386.79 370.972 1384.88C370.972 1382.91 371.655 1381.2 373.02 1379.77C374.454 1378.34 376.161 1377.63 378.141 1377.63C380.053 1377.63 381.692 1378.34 383.058 1379.77C384.423 1381.2 385.106 1382.91 385.106 1384.88C385.106 1386.79 384.423 1388.46 383.058 1389.89C381.692 1391.25 380.053 1391.94 378.141 1391.94Z" fill="white"/>
<path d="M517.292 1437.11C514.151 1437.11 511.215 1436.88 508.484 1436.4C505.821 1435.92 503.363 1435.1 501.109 1433.95C498.856 1432.72 496.842 1431.05 495.066 1428.94C493.359 1426.82 491.926 1424.17 490.765 1420.96L498.856 1414.52C500.085 1416.71 501.587 1418.41 503.363 1419.64C505.138 1420.79 507.255 1421.61 509.713 1422.09C512.171 1422.57 515.039 1422.8 518.316 1422.8C520.911 1422.8 522.754 1423.49 523.847 1424.85C524.939 1426.14 525.486 1427.78 525.486 1429.75C525.486 1431.87 524.769 1433.64 523.335 1435.07C521.969 1436.43 519.955 1437.11 517.292 1437.11ZM450.308 1437.11L451.332 1422.8C455.02 1422.8 458.673 1422.6 462.291 1422.19C465.91 1421.78 469.427 1421.17 472.841 1420.35C476.255 1419.53 479.498 1418.48 482.571 1417.18C485.712 1415.89 488.648 1414.32 491.379 1412.48C489.331 1411.25 487.112 1410.2 484.722 1409.31C482.332 1408.43 479.771 1407.78 477.04 1407.37C474.377 1406.89 471.544 1406.65 468.539 1406.65C467.447 1406.65 466.286 1406.69 465.057 1406.76C463.896 1406.82 462.701 1406.96 461.472 1407.17C460.243 1407.3 459.014 1407.51 457.785 1407.78L455.736 1393.77C457.717 1393.23 459.799 1392.86 461.984 1392.65C464.237 1392.38 466.218 1392.24 467.925 1392.24C471.612 1392.24 474.992 1392.65 478.064 1393.47C481.205 1394.29 484.073 1395.31 486.668 1396.53C489.331 1397.76 491.789 1398.99 494.042 1400.21C496.364 1401.44 498.549 1402.46 500.597 1403.28C502.714 1404.1 504.762 1404.51 506.743 1404.51H510.532L512.171 1418.1C509.235 1418.24 506.469 1418.82 503.875 1419.84C501.348 1420.79 498.822 1422.02 496.296 1423.52C493.837 1424.95 491.174 1426.45 488.307 1428.02C485.507 1429.58 482.332 1431.05 478.781 1432.41C475.231 1433.77 471.134 1434.9 466.491 1435.79C461.848 1436.67 456.453 1437.11 450.308 1437.11Z" fill="white"/>
<path d="M570.377 1438.44C564.027 1438.44 558.735 1438.17 554.502 1437.63C550.336 1437.08 546.956 1436.3 544.362 1435.27C541.767 1434.25 539.719 1433.03 538.216 1431.59C536.714 1430.16 535.485 1428.6 534.529 1426.89L537.397 1426.07C535.69 1429.35 533.744 1431.76 531.559 1433.33C529.374 1434.9 527.087 1435.92 524.697 1436.4C522.307 1436.88 519.849 1437.11 517.322 1437.11L518.347 1422.8C520.463 1422.8 522.136 1422.46 523.365 1421.78C524.594 1421.1 525.584 1419.98 526.336 1418.41C527.155 1416.84 527.906 1414.76 528.589 1412.17C529.272 1409.58 530.091 1406.42 531.047 1402.67L544.055 1405.84C543.577 1407.68 543.167 1409.28 542.825 1410.64C542.552 1412 542.313 1413.2 542.108 1414.22C541.972 1415.17 541.904 1415.96 541.904 1416.57C541.904 1417.86 542.211 1419.02 542.825 1420.04C543.44 1421 544.635 1421.78 546.41 1422.4C548.186 1422.94 550.78 1423.38 554.194 1423.72C557.677 1424 562.217 1424.13 567.816 1424.13C573.757 1424.13 578.707 1423.93 582.668 1423.52C586.628 1423.04 589.769 1422.4 592.09 1421.58C594.48 1420.69 596.187 1419.64 597.211 1418.41C598.236 1417.11 598.748 1415.65 598.748 1414.01C598.748 1412.72 598.44 1411.53 597.826 1410.44C597.28 1409.28 596.358 1408.32 595.061 1407.57C593.763 1406.82 592.09 1406.45 590.042 1406.45C587.584 1406.45 585.092 1407.06 582.565 1408.29C580.107 1409.45 577.683 1411.02 575.293 1412.99C572.903 1414.9 570.616 1417.05 568.431 1419.43C566.314 1421.82 564.402 1424.2 562.695 1426.59L547.332 1424.85C549.995 1420.56 552.999 1416.43 556.345 1412.48C559.691 1408.53 563.276 1405.05 567.099 1402.05C570.923 1398.99 574.883 1396.57 578.98 1394.8C583.077 1393.03 587.242 1392.14 591.476 1392.14C596.051 1392.14 599.943 1393.03 603.152 1394.8C606.361 1396.57 608.819 1399.02 610.526 1402.16C612.233 1405.29 613.087 1408.9 613.087 1412.99C613.087 1417.97 611.653 1422.36 608.785 1426.18C605.986 1429.99 601.445 1432.99 595.163 1435.17C588.949 1437.35 580.687 1438.44 570.377 1438.44Z" fill="white"/>
<path d="M646.046 1478.02V1470.87L670.217 1463.71V1471.07L646.046 1478.02Z" fill="white"/>
<path d="M639.187 1460.11L633.963 1447.03C639.835 1444.98 644.581 1442.74 648.2 1440.28C651.887 1437.83 654.584 1435.21 656.291 1432.41C658.067 1429.62 658.954 1426.72 658.954 1423.72C658.954 1421.82 658.681 1419.84 658.135 1417.8C657.589 1415.68 656.803 1413.47 655.779 1411.15C654.823 1408.83 653.662 1406.42 652.297 1403.89L665.714 1397.45C668.104 1402.02 669.948 1406.38 671.245 1410.54C672.61 1414.69 673.293 1418.58 673.293 1422.19C673.293 1425.53 672.849 1428.73 671.962 1431.8C671.142 1434.87 669.845 1437.73 668.07 1440.38C666.363 1443.11 664.144 1445.67 661.412 1448.05C658.681 1450.44 655.472 1452.62 651.785 1454.59C648.098 1456.64 643.898 1458.48 639.187 1460.11ZM661.822 1387.03C659.705 1387.03 657.896 1386.31 656.394 1384.88C654.96 1383.45 654.243 1381.68 654.243 1379.57C654.243 1377.45 654.96 1375.65 656.394 1374.15C657.896 1372.65 659.705 1371.9 661.822 1371.9C663.87 1371.9 665.612 1372.65 667.046 1374.15C668.548 1375.65 669.299 1377.45 669.299 1379.57C669.299 1381.68 668.548 1383.45 667.046 1384.88C665.612 1386.31 663.87 1387.03 661.822 1387.03Z" fill="white"/>
<path d="M687.651 1436.6L685.5 1361.78H699.839L701.99 1436.6H687.651Z" fill="white"/>
<path d="M713.301 1460.11L710.331 1445.8C715.179 1445.19 719.412 1444.44 723.031 1443.55C726.65 1442.74 729.689 1441.58 732.147 1440.08C734.605 1438.58 736.448 1436.53 737.677 1433.95C738.906 1431.29 739.521 1427.88 739.521 1423.72C739.521 1422.22 739.384 1420.73 739.111 1419.23C738.838 1417.66 738.428 1416.23 737.882 1414.93C737.336 1413.64 736.619 1412.58 735.731 1411.76C734.912 1410.95 733.922 1410.54 732.761 1410.54C731.532 1410.54 730.44 1410.98 729.484 1411.87C728.528 1412.68 727.777 1413.74 727.23 1415.04C726.684 1416.26 726.411 1417.52 726.411 1418.82C726.411 1419.77 726.65 1420.59 727.128 1421.27C727.606 1421.88 728.323 1422.36 729.279 1422.7C730.235 1422.97 731.43 1423.11 732.864 1423.11C734.502 1423.11 736.175 1422.94 737.882 1422.6C739.658 1422.19 741.262 1421.65 742.696 1420.96L743.106 1432.11C741.467 1433.4 739.589 1434.56 737.473 1435.58C735.356 1436.53 732.795 1437.01 729.791 1437.01C727.333 1437.01 725.045 1436.74 722.929 1436.19C720.812 1435.58 718.934 1434.66 717.295 1433.43C715.725 1432.21 714.496 1430.64 713.608 1428.73C712.721 1426.76 712.277 1424.41 712.277 1421.68C712.277 1418.34 712.823 1415.1 713.916 1411.97C715.008 1408.83 716.51 1406.04 718.422 1403.59C720.402 1401.07 722.656 1399.09 725.182 1397.66C727.777 1396.16 730.508 1395.41 733.376 1395.41C736.79 1395.41 739.76 1396.26 742.286 1397.97C744.881 1399.67 747.032 1401.92 748.739 1404.71C750.446 1407.44 751.743 1410.4 752.631 1413.6C753.519 1416.81 753.962 1419.87 753.962 1422.8C753.962 1430.5 752.324 1437.05 749.046 1442.43C745.769 1447.81 741.091 1451.97 735.014 1454.9C728.937 1457.9 721.7 1459.64 713.301 1460.11Z" fill="white"/>
<path d="M766.463 1436.6L764.517 1368.94H778.856L780.802 1436.6H766.463ZM778.139 1359.02C776.09 1359.02 774.247 1358.68 772.608 1358C770.969 1357.25 769.467 1356.53 768.102 1355.85C766.736 1355.17 765.473 1354.83 764.312 1354.83C763.083 1354.83 761.956 1355.14 760.932 1355.75C759.976 1356.36 758.952 1357.22 757.859 1358.31L753.046 1353.81C754.889 1351.49 756.733 1349.75 758.576 1348.6C760.488 1347.44 762.4 1346.86 764.312 1346.86C766.019 1346.86 767.589 1347.2 769.023 1347.88C770.457 1348.56 771.891 1349.24 773.325 1349.92C774.827 1350.61 776.432 1350.95 778.139 1350.95C779.231 1350.95 780.256 1350.78 781.211 1350.44C782.167 1350.03 783.328 1349.41 784.694 1348.6L788.279 1354.22C785.82 1356.33 783.772 1357.66 782.133 1358.2C780.563 1358.75 779.231 1359.02 778.139 1359.02Z" fill="white"/>
</g>
<defs>
<clipPath id="clip0_2229_2566">
<rect width="1127.68" height="2436" fill="white"/>
</clipPath>
</defs>
</svg>
